G04 #@! TF.GenerationSoftware,KiCad,Pcbnew,(5.1.5)-3*
G04 #@! TF.CreationDate,2022-02-17T21:05:38-07:00*
G04 #@! TF.ProjectId,Star_Wars_Vector_PCB,53746172-5f57-4617-9273-5f566563746f,rev?*
G04 #@! TF.SameCoordinates,Original*
G04 #@! TF.FileFunction,Profile,NP*
%FSLAX46Y46*%
G04 Gerber Fmt 4.6, Leading zero omitted, Abs format (unit mm)*
G04 Created by KiCad (PCBNEW (5.1.5)-3) date 2022-02-17 21:05:38*
%MOMM*%
%LPD*%
G04 APERTURE LIST*
%ADD10C,0.025400*%
G04 APERTURE END LIST*
D10*
X179070000Y-53975000D02*
X179070000Y-47625000D01*
X63500000Y-53975000D02*
X63500000Y-47625000D01*
X166370000Y-46355000D02*
X166370000Y-53975000D01*
X156210000Y-53975000D02*
X156210000Y-46355000D01*
X138430000Y-46355000D02*
X138430000Y-53975000D01*
X76200000Y-53975000D02*
X76200000Y-46355000D01*
X317500000Y-572135000D02*
X317500000Y-47625000D01*
X25400000Y-572135000D02*
X25400000Y-47625000D01*
X115570000Y-558165000D02*
X115570000Y-551815000D01*
X227330000Y-558165000D02*
X115570000Y-558165000D01*
X227330000Y-551815000D02*
X227330000Y-558165000D01*
X115570000Y-551815000D02*
G75*
G03X114300000Y-550545000I-1270000J0D01*
G01*
X94615000Y-550545000D02*
X114300000Y-550545000D01*
X228600000Y-550545000D02*
G75*
G03X227330000Y-551815000I0J-1270000D01*
G01*
X248285000Y-550545000D02*
X228600000Y-550545000D01*
X249555000Y-551815000D02*
G75*
G03X248285000Y-550545000I-1270000J0D01*
G01*
X249555000Y-572135000D02*
X249555000Y-551815000D01*
X94615000Y-550545000D02*
G75*
G03X93345000Y-551815000I0J-1270000D01*
G01*
X93345000Y-572135000D02*
X93345000Y-551815000D01*
X25400000Y-572135000D02*
X93345000Y-572135000D01*
X317500000Y-572135000D02*
X249555000Y-572135000D01*
X177800000Y-55245000D02*
X167640000Y-55245000D01*
X177800000Y-55245000D02*
G75*
G03X179070000Y-53975000I0J1270000D01*
G01*
X166370000Y-53975000D02*
G75*
G03X167640000Y-55245000I1270000J0D01*
G01*
X154940000Y-55245000D02*
X139700000Y-55245000D01*
X154940000Y-55245000D02*
G75*
G03X156210000Y-53975000I0J1270000D01*
G01*
X138430000Y-53975000D02*
G75*
G03X139700000Y-55245000I1270000J0D01*
G01*
X74930000Y-55245000D02*
X64770000Y-55245000D01*
X74930000Y-55245000D02*
G75*
G03X76200000Y-53975000I0J1270000D01*
G01*
X63500000Y-53975000D02*
G75*
G03X64770000Y-55245000I1270000J0D01*
G01*
X90170000Y-55245000D02*
X90170000Y-46355000D01*
X88900000Y-55245000D02*
X90170000Y-55245000D01*
X88900000Y-46355000D02*
X88900000Y-55245000D01*
X179070000Y-47625000D02*
X317500000Y-47625000D01*
X156210000Y-46355000D02*
X166370000Y-46355000D01*
X90170000Y-46355000D02*
X138430000Y-46355000D01*
X76200000Y-46355000D02*
X88900000Y-46355000D01*
X25400000Y-47625000D02*
X63500000Y-47625000D01*
M02*
