G04 #@! TF.GenerationSoftware,KiCad,Pcbnew,(5.1.5)-3*
G04 #@! TF.CreationDate,2022-02-17T21:05:38-07:00*
G04 #@! TF.ProjectId,Star_Wars_Vector_PCB,53746172-5f57-4617-9273-5f566563746f,rev?*
G04 #@! TF.SameCoordinates,Original*
G04 #@! TF.FileFunction,Soldermask,Bot*
G04 #@! TF.FilePolarity,Negative*
%FSLAX46Y46*%
G04 Gerber Fmt 4.6, Leading zero omitted, Abs format (unit mm)*
G04 Created by KiCad (PCBNEW (5.1.5)-3) date 2022-02-17 21:05:38*
%MOMM*%
%LPD*%
G04 APERTURE LIST*
%ADD10C,0.100000*%
%ADD11C,2.305000*%
%ADD12C,5.607000*%
%ADD13C,1.924000*%
%ADD14R,1.924000X1.924000*%
%ADD15R,2.305000X2.305000*%
%ADD16C,3.702000*%
G04 APERTURE END LIST*
D10*
G36*
X80899000Y-55435500D02*
G01*
X78359000Y-55435500D01*
X78359000Y-46545500D01*
X80899000Y-46545500D01*
X80899000Y-55435500D01*
G37*
X80899000Y-55435500D02*
X78359000Y-55435500D01*
X78359000Y-46545500D01*
X80899000Y-46545500D01*
X80899000Y-55435500D01*
G36*
X84836000Y-55435500D02*
G01*
X82296000Y-55435500D01*
X82296000Y-46545500D01*
X84836000Y-46545500D01*
X84836000Y-55435500D01*
G37*
X84836000Y-55435500D02*
X82296000Y-55435500D01*
X82296000Y-46545500D01*
X84836000Y-46545500D01*
X84836000Y-55435500D01*
G36*
X88836500Y-55435500D02*
G01*
X86296500Y-55435500D01*
X86296500Y-46545500D01*
X88836500Y-46545500D01*
X88836500Y-55435500D01*
G37*
X88836500Y-55435500D02*
X86296500Y-55435500D01*
X86296500Y-46545500D01*
X88836500Y-46545500D01*
X88836500Y-55435500D01*
G36*
X92773500Y-55435500D02*
G01*
X90233500Y-55435500D01*
X90233500Y-46545500D01*
X92773500Y-46545500D01*
X92773500Y-55435500D01*
G37*
X92773500Y-55435500D02*
X90233500Y-55435500D01*
X90233500Y-46545500D01*
X92773500Y-46545500D01*
X92773500Y-55435500D01*
G36*
X96710500Y-55435500D02*
G01*
X94234000Y-55435500D01*
X94234000Y-46545500D01*
X96710500Y-46545500D01*
X96710500Y-55435500D01*
G37*
X96710500Y-55435500D02*
X94234000Y-55435500D01*
X94234000Y-46545500D01*
X96710500Y-46545500D01*
X96710500Y-55435500D01*
G36*
X100711000Y-55435500D02*
G01*
X98171000Y-55435500D01*
X98171000Y-46545500D01*
X100711000Y-46545500D01*
X100711000Y-55435500D01*
G37*
X100711000Y-55435500D02*
X98171000Y-55435500D01*
X98171000Y-46545500D01*
X100711000Y-46545500D01*
X100711000Y-55435500D01*
G36*
X104648000Y-55435500D02*
G01*
X102171500Y-55435500D01*
X102171500Y-46545500D01*
X104648000Y-46545500D01*
X104648000Y-55435500D01*
G37*
X104648000Y-55435500D02*
X102171500Y-55435500D01*
X102171500Y-46545500D01*
X104648000Y-46545500D01*
X104648000Y-55435500D01*
G36*
X108648500Y-55435500D02*
G01*
X106108500Y-55435500D01*
X106108500Y-46545500D01*
X108648500Y-46545500D01*
X108648500Y-55435500D01*
G37*
X108648500Y-55435500D02*
X106108500Y-55435500D01*
X106108500Y-46545500D01*
X108648500Y-46545500D01*
X108648500Y-55435500D01*
G36*
X112585500Y-55435500D02*
G01*
X110045500Y-55435500D01*
X110045500Y-46545500D01*
X112585500Y-46545500D01*
X112585500Y-55435500D01*
G37*
X112585500Y-55435500D02*
X110045500Y-55435500D01*
X110045500Y-46545500D01*
X112585500Y-46545500D01*
X112585500Y-55435500D01*
G36*
X116522500Y-55435500D02*
G01*
X113982500Y-55435500D01*
X113982500Y-46545500D01*
X116522500Y-46545500D01*
X116522500Y-55435500D01*
G37*
X116522500Y-55435500D02*
X113982500Y-55435500D01*
X113982500Y-46545500D01*
X116522500Y-46545500D01*
X116522500Y-55435500D01*
G36*
X120523000Y-55435500D02*
G01*
X117983000Y-55435500D01*
X117983000Y-46545500D01*
X120523000Y-46545500D01*
X120523000Y-55435500D01*
G37*
X120523000Y-55435500D02*
X117983000Y-55435500D01*
X117983000Y-46545500D01*
X120523000Y-46545500D01*
X120523000Y-55435500D01*
G36*
X124460000Y-55435500D02*
G01*
X121920000Y-55435500D01*
X121920000Y-46545500D01*
X124460000Y-46545500D01*
X124460000Y-55435500D01*
G37*
X124460000Y-55435500D02*
X121920000Y-55435500D01*
X121920000Y-46545500D01*
X124460000Y-46545500D01*
X124460000Y-55435500D01*
G36*
X128397000Y-55435500D02*
G01*
X125920500Y-55435500D01*
X125920500Y-46545500D01*
X128397000Y-46545500D01*
X128397000Y-55435500D01*
G37*
X128397000Y-55435500D02*
X125920500Y-55435500D01*
X125920500Y-46545500D01*
X128397000Y-46545500D01*
X128397000Y-55435500D01*
G36*
X132397500Y-55435500D02*
G01*
X129857500Y-55435500D01*
X129857500Y-46545500D01*
X132397500Y-46545500D01*
X132397500Y-55435500D01*
G37*
X132397500Y-55435500D02*
X129857500Y-55435500D01*
X129857500Y-46545500D01*
X132397500Y-46545500D01*
X132397500Y-55435500D01*
G36*
X136334500Y-55435500D02*
G01*
X133858000Y-55435500D01*
X133858000Y-46545500D01*
X136334500Y-46545500D01*
X136334500Y-55435500D01*
G37*
X136334500Y-55435500D02*
X133858000Y-55435500D01*
X133858000Y-46545500D01*
X136334500Y-46545500D01*
X136334500Y-55435500D01*
D11*
X82550000Y-110490000D03*
X82550000Y-115570000D03*
X211455000Y-351155000D03*
X216535000Y-351155000D03*
X99060000Y-120650000D03*
X104140000Y-120650000D03*
X210820000Y-497840000D03*
X215900000Y-497840000D03*
X292100000Y-535940000D03*
X297180000Y-535940000D03*
X169545000Y-440055000D03*
X174625000Y-440055000D03*
X170180000Y-459105000D03*
X175260000Y-459105000D03*
X38100000Y-449580000D03*
X43180000Y-449580000D03*
X48895000Y-436245000D03*
X53975000Y-436245000D03*
X272415000Y-401955000D03*
X277495000Y-401955000D03*
X179705000Y-376555000D03*
X184785000Y-376555000D03*
X38100000Y-396240000D03*
X43180000Y-396240000D03*
X63500000Y-227965000D03*
X68580000Y-227965000D03*
X121920000Y-234315000D03*
X127000000Y-234315000D03*
X149225000Y-234315000D03*
X154305000Y-234315000D03*
X123190000Y-191770000D03*
X128270000Y-191770000D03*
X123190000Y-187960000D03*
X128270000Y-187960000D03*
X175260000Y-169545000D03*
X175260000Y-174625000D03*
X229870000Y-114300000D03*
X234950000Y-114300000D03*
X238125000Y-85090000D03*
X238125000Y-90170000D03*
X232410000Y-88265000D03*
X232410000Y-93345000D03*
X180340000Y-80645000D03*
X185420000Y-80645000D03*
X97155000Y-88265000D03*
X97155000Y-93345000D03*
X85090000Y-88265000D03*
X85090000Y-93345000D03*
X72390000Y-88265000D03*
X72390000Y-93345000D03*
D12*
X30480000Y-567055000D03*
X312420000Y-567055000D03*
X146050000Y-293370000D03*
X30480000Y-52705000D03*
X69850000Y-60325000D03*
X144780000Y-60325000D03*
X312420000Y-52705000D03*
D13*
X34925000Y-304165000D03*
X34925000Y-353695000D03*
X144145000Y-448310000D03*
X102870000Y-431165000D03*
X307975000Y-406400000D03*
X34925000Y-404495000D03*
X40005000Y-493395000D03*
X37465000Y-493395000D03*
X125730000Y-546735000D03*
X123190000Y-546735000D03*
X219710000Y-487680000D03*
X214630000Y-487680000D03*
X217170000Y-487680000D03*
X214630000Y-546735000D03*
X217170000Y-546735000D03*
X146050000Y-546735000D03*
X148590000Y-546735000D03*
X151130000Y-546735000D03*
X153670000Y-546735000D03*
X156210000Y-546735000D03*
X158750000Y-546735000D03*
X161290000Y-546735000D03*
X163830000Y-546735000D03*
X166370000Y-546735000D03*
X168910000Y-546735000D03*
X171450000Y-546735000D03*
X173990000Y-546735000D03*
X176530000Y-546735000D03*
X179070000Y-546735000D03*
X181610000Y-546735000D03*
X184150000Y-546735000D03*
X143510000Y-546735000D03*
X140970000Y-546735000D03*
X138430000Y-546735000D03*
X135890000Y-546735000D03*
X133350000Y-546735000D03*
X130810000Y-546735000D03*
X186690000Y-546735000D03*
X189230000Y-546735000D03*
X191770000Y-546735000D03*
X194310000Y-546735000D03*
X196850000Y-546735000D03*
X199390000Y-546735000D03*
X201930000Y-546735000D03*
X204470000Y-546735000D03*
X207010000Y-546735000D03*
X34925000Y-455930000D03*
X129540000Y-73025000D03*
X129540000Y-69215000D03*
X83820000Y-59690000D03*
X83820000Y-76200000D03*
X83820000Y-72390000D03*
X219710000Y-546735000D03*
X120650000Y-546735000D03*
X118110000Y-546735000D03*
X31750000Y-542925000D03*
X31750000Y-539115000D03*
X222250000Y-546735000D03*
X224790000Y-546735000D03*
X297180000Y-471170000D03*
X297180000Y-468630000D03*
D14*
X297180000Y-463550000D03*
D13*
X297180000Y-466090000D03*
X297180000Y-473710000D03*
X297180000Y-476250000D03*
X297180000Y-478790000D03*
X304800000Y-478790000D03*
X304800000Y-476250000D03*
X304800000Y-473710000D03*
X304800000Y-471170000D03*
X304800000Y-468630000D03*
X304800000Y-466090000D03*
X304800000Y-463550000D03*
X275590000Y-471170000D03*
X275590000Y-468630000D03*
X275590000Y-466090000D03*
D14*
X275590000Y-463550000D03*
D13*
X275590000Y-473710000D03*
X275590000Y-476250000D03*
X275590000Y-478790000D03*
X275590000Y-481330000D03*
X283210000Y-481330000D03*
X283210000Y-478790000D03*
X283210000Y-476250000D03*
X283210000Y-473710000D03*
X283210000Y-471170000D03*
X283210000Y-468630000D03*
X283210000Y-466090000D03*
X283210000Y-463550000D03*
X254000000Y-471170000D03*
X254000000Y-468630000D03*
X254000000Y-466090000D03*
D14*
X254000000Y-463550000D03*
D13*
X254000000Y-473710000D03*
X254000000Y-476250000D03*
X254000000Y-478790000D03*
X254000000Y-481330000D03*
X261620000Y-481330000D03*
X261620000Y-478790000D03*
X261620000Y-476250000D03*
X261620000Y-473710000D03*
X261620000Y-471170000D03*
X261620000Y-468630000D03*
X261620000Y-466090000D03*
X261620000Y-463550000D03*
X232410000Y-471170000D03*
X232410000Y-468630000D03*
X232410000Y-466090000D03*
D14*
X232410000Y-463550000D03*
D13*
X232410000Y-473710000D03*
X232410000Y-476250000D03*
X232410000Y-478790000D03*
X232410000Y-481330000D03*
X240030000Y-481330000D03*
X240030000Y-478790000D03*
X240030000Y-476250000D03*
X240030000Y-473710000D03*
X240030000Y-471170000D03*
X240030000Y-468630000D03*
X240030000Y-466090000D03*
X240030000Y-463550000D03*
X210820000Y-471170000D03*
X210820000Y-468630000D03*
D14*
X210820000Y-463550000D03*
D13*
X210820000Y-466090000D03*
X210820000Y-473710000D03*
X210820000Y-476250000D03*
X210820000Y-478790000D03*
X218440000Y-478790000D03*
X218440000Y-476250000D03*
X218440000Y-473710000D03*
X218440000Y-471170000D03*
X218440000Y-468630000D03*
X218440000Y-466090000D03*
X218440000Y-463550000D03*
X189230000Y-471170000D03*
X189230000Y-468630000D03*
D14*
X189230000Y-463550000D03*
D13*
X189230000Y-466090000D03*
X189230000Y-473710000D03*
X189230000Y-476250000D03*
X189230000Y-478790000D03*
X196850000Y-478790000D03*
X196850000Y-476250000D03*
X196850000Y-473710000D03*
X196850000Y-471170000D03*
X196850000Y-468630000D03*
X196850000Y-466090000D03*
X196850000Y-463550000D03*
D14*
X124460000Y-463550000D03*
D13*
X124460000Y-466090000D03*
X124460000Y-468630000D03*
X124460000Y-471170000D03*
X124460000Y-473710000D03*
X124460000Y-476250000D03*
X124460000Y-478790000D03*
X124460000Y-481330000D03*
X124460000Y-483870000D03*
X124460000Y-486410000D03*
X132080000Y-486410000D03*
X132080000Y-483870000D03*
X132080000Y-481330000D03*
X132080000Y-478790000D03*
X132080000Y-476250000D03*
X132080000Y-473710000D03*
X132080000Y-471170000D03*
X132080000Y-468630000D03*
X132080000Y-466090000D03*
X132080000Y-463550000D03*
D14*
X99060000Y-463550000D03*
D13*
X99060000Y-466090000D03*
X99060000Y-468630000D03*
X99060000Y-471170000D03*
X99060000Y-473710000D03*
X99060000Y-476250000D03*
X99060000Y-478790000D03*
X99060000Y-481330000D03*
X99060000Y-483870000D03*
X99060000Y-486410000D03*
X99060000Y-488950000D03*
X99060000Y-491490000D03*
X114300000Y-491490000D03*
X114300000Y-488950000D03*
X114300000Y-486410000D03*
X114300000Y-483870000D03*
X114300000Y-481330000D03*
X114300000Y-478790000D03*
X114300000Y-476250000D03*
X114300000Y-473710000D03*
X114300000Y-471170000D03*
X114300000Y-468630000D03*
X114300000Y-466090000D03*
X114300000Y-463550000D03*
D14*
X81280000Y-463550000D03*
D13*
X81280000Y-466090000D03*
X81280000Y-468630000D03*
X81280000Y-471170000D03*
X81280000Y-473710000D03*
X81280000Y-476250000D03*
X81280000Y-478790000D03*
X81280000Y-481330000D03*
X81280000Y-483870000D03*
X81280000Y-486410000D03*
X88900000Y-486410000D03*
X88900000Y-483870000D03*
X88900000Y-481330000D03*
X88900000Y-478790000D03*
X88900000Y-476250000D03*
X88900000Y-473710000D03*
X88900000Y-471170000D03*
X88900000Y-468630000D03*
X88900000Y-466090000D03*
X88900000Y-463550000D03*
D14*
X59690000Y-463550000D03*
D13*
X59690000Y-466090000D03*
X59690000Y-468630000D03*
X59690000Y-471170000D03*
X59690000Y-473710000D03*
X59690000Y-476250000D03*
X59690000Y-478790000D03*
X59690000Y-481330000D03*
X59690000Y-483870000D03*
X59690000Y-486410000D03*
X67310000Y-486410000D03*
X67310000Y-483870000D03*
X67310000Y-481330000D03*
X67310000Y-478790000D03*
X67310000Y-476250000D03*
X67310000Y-473710000D03*
X67310000Y-471170000D03*
X67310000Y-468630000D03*
X67310000Y-466090000D03*
X67310000Y-463550000D03*
D14*
X38100000Y-463550000D03*
D13*
X38100000Y-466090000D03*
X38100000Y-468630000D03*
X38100000Y-471170000D03*
X38100000Y-473710000D03*
X38100000Y-476250000D03*
X38100000Y-478790000D03*
X38100000Y-481330000D03*
X38100000Y-483870000D03*
X38100000Y-486410000D03*
X45720000Y-486410000D03*
X45720000Y-483870000D03*
X45720000Y-481330000D03*
X45720000Y-478790000D03*
X45720000Y-476250000D03*
X45720000Y-473710000D03*
X45720000Y-471170000D03*
X45720000Y-468630000D03*
X45720000Y-466090000D03*
X45720000Y-463550000D03*
X297180000Y-414020000D03*
X297180000Y-411480000D03*
D14*
X297180000Y-406400000D03*
D13*
X297180000Y-408940000D03*
X297180000Y-416560000D03*
X297180000Y-419100000D03*
X297180000Y-421640000D03*
X304800000Y-421640000D03*
X304800000Y-419100000D03*
X304800000Y-416560000D03*
X304800000Y-414020000D03*
X304800000Y-411480000D03*
X304800000Y-408940000D03*
X304800000Y-406400000D03*
X275590000Y-414020000D03*
X275590000Y-411480000D03*
X275590000Y-408940000D03*
D14*
X275590000Y-406400000D03*
D13*
X275590000Y-416560000D03*
X275590000Y-419100000D03*
X275590000Y-421640000D03*
X275590000Y-424180000D03*
X283210000Y-424180000D03*
X283210000Y-421640000D03*
X283210000Y-419100000D03*
X283210000Y-416560000D03*
X283210000Y-414020000D03*
X283210000Y-411480000D03*
X283210000Y-408940000D03*
X283210000Y-406400000D03*
X254000000Y-414020000D03*
X254000000Y-411480000D03*
D14*
X254000000Y-406400000D03*
D13*
X254000000Y-408940000D03*
X254000000Y-416560000D03*
X254000000Y-419100000D03*
X254000000Y-421640000D03*
X261620000Y-421640000D03*
X261620000Y-419100000D03*
X261620000Y-416560000D03*
X261620000Y-414020000D03*
X261620000Y-411480000D03*
X261620000Y-408940000D03*
X261620000Y-406400000D03*
X232410000Y-414020000D03*
X232410000Y-411480000D03*
D14*
X232410000Y-406400000D03*
D13*
X232410000Y-408940000D03*
X232410000Y-416560000D03*
X232410000Y-419100000D03*
X232410000Y-421640000D03*
X240030000Y-421640000D03*
X240030000Y-419100000D03*
X240030000Y-416560000D03*
X240030000Y-414020000D03*
X240030000Y-411480000D03*
X240030000Y-408940000D03*
X240030000Y-406400000D03*
X210820000Y-414020000D03*
X210820000Y-411480000D03*
D14*
X210820000Y-406400000D03*
D13*
X210820000Y-408940000D03*
X210820000Y-416560000D03*
X210820000Y-419100000D03*
X210820000Y-421640000D03*
X218440000Y-421640000D03*
X218440000Y-419100000D03*
X218440000Y-416560000D03*
X218440000Y-414020000D03*
X218440000Y-411480000D03*
X218440000Y-408940000D03*
X218440000Y-406400000D03*
X189230000Y-414020000D03*
X189230000Y-411480000D03*
X189230000Y-408940000D03*
D14*
X189230000Y-406400000D03*
D13*
X189230000Y-416560000D03*
X189230000Y-419100000D03*
X189230000Y-421640000D03*
X189230000Y-424180000D03*
X196850000Y-424180000D03*
X196850000Y-421640000D03*
X196850000Y-419100000D03*
X196850000Y-416560000D03*
X196850000Y-414020000D03*
X196850000Y-411480000D03*
X196850000Y-408940000D03*
X196850000Y-406400000D03*
X167640000Y-414020000D03*
X167640000Y-411480000D03*
D14*
X167640000Y-406400000D03*
D13*
X167640000Y-408940000D03*
X167640000Y-416560000D03*
X167640000Y-419100000D03*
X167640000Y-421640000D03*
X175260000Y-421640000D03*
X175260000Y-419100000D03*
X175260000Y-416560000D03*
X175260000Y-414020000D03*
X175260000Y-411480000D03*
X175260000Y-408940000D03*
X175260000Y-406400000D03*
X156845000Y-427990000D03*
X156845000Y-430530000D03*
X156845000Y-433070000D03*
X156845000Y-435610000D03*
X156845000Y-438150000D03*
X156845000Y-440690000D03*
X156845000Y-443230000D03*
X156845000Y-445770000D03*
X141605000Y-445770000D03*
X141605000Y-443230000D03*
X141605000Y-440690000D03*
X141605000Y-438150000D03*
X141605000Y-435610000D03*
X141605000Y-433070000D03*
X141605000Y-430530000D03*
X141605000Y-427990000D03*
D14*
X141605000Y-397510000D03*
D13*
X141605000Y-400050000D03*
X141605000Y-402590000D03*
X141605000Y-405130000D03*
X141605000Y-407670000D03*
X141605000Y-410210000D03*
X141605000Y-412750000D03*
X141605000Y-415290000D03*
X141605000Y-417830000D03*
X141605000Y-420370000D03*
X141605000Y-422910000D03*
X141605000Y-425450000D03*
X156845000Y-425450000D03*
X156845000Y-422910000D03*
X156845000Y-420370000D03*
X156845000Y-417830000D03*
X156845000Y-415290000D03*
X156845000Y-412750000D03*
X156845000Y-410210000D03*
X156845000Y-407670000D03*
X156845000Y-405130000D03*
X156845000Y-402590000D03*
X156845000Y-400050000D03*
X156845000Y-397510000D03*
X124460000Y-414020000D03*
X124460000Y-411480000D03*
X124460000Y-408940000D03*
D14*
X124460000Y-406400000D03*
D13*
X124460000Y-416560000D03*
X124460000Y-419100000D03*
X124460000Y-421640000D03*
X124460000Y-424180000D03*
X132080000Y-424180000D03*
X132080000Y-421640000D03*
X132080000Y-419100000D03*
X132080000Y-416560000D03*
X132080000Y-414020000D03*
X132080000Y-411480000D03*
X132080000Y-408940000D03*
X132080000Y-406400000D03*
X102870000Y-414020000D03*
X102870000Y-411480000D03*
X102870000Y-408940000D03*
D14*
X102870000Y-406400000D03*
D13*
X102870000Y-416560000D03*
X102870000Y-419100000D03*
X102870000Y-421640000D03*
X102870000Y-424180000D03*
X110490000Y-424180000D03*
X110490000Y-421640000D03*
X110490000Y-419100000D03*
X110490000Y-416560000D03*
X110490000Y-414020000D03*
X110490000Y-411480000D03*
X110490000Y-408940000D03*
X110490000Y-406400000D03*
D14*
X81280000Y-406400000D03*
D13*
X81280000Y-408940000D03*
X81280000Y-411480000D03*
X81280000Y-414020000D03*
X81280000Y-416560000D03*
X81280000Y-419100000D03*
X81280000Y-421640000D03*
X81280000Y-424180000D03*
X81280000Y-426720000D03*
X81280000Y-429260000D03*
X88900000Y-429260000D03*
X88900000Y-426720000D03*
X88900000Y-424180000D03*
X88900000Y-421640000D03*
X88900000Y-419100000D03*
X88900000Y-416560000D03*
X88900000Y-414020000D03*
X88900000Y-411480000D03*
X88900000Y-408940000D03*
X88900000Y-406400000D03*
D14*
X59690000Y-406400000D03*
D13*
X59690000Y-408940000D03*
X59690000Y-411480000D03*
X59690000Y-414020000D03*
X59690000Y-416560000D03*
X59690000Y-419100000D03*
X59690000Y-421640000D03*
X59690000Y-424180000D03*
X59690000Y-426720000D03*
X59690000Y-429260000D03*
X67310000Y-429260000D03*
X67310000Y-426720000D03*
X67310000Y-424180000D03*
X67310000Y-421640000D03*
X67310000Y-419100000D03*
X67310000Y-416560000D03*
X67310000Y-414020000D03*
X67310000Y-411480000D03*
X67310000Y-408940000D03*
X67310000Y-406400000D03*
X38100000Y-414020000D03*
X38100000Y-411480000D03*
X38100000Y-408940000D03*
D14*
X38100000Y-406400000D03*
D13*
X38100000Y-416560000D03*
X38100000Y-419100000D03*
X38100000Y-421640000D03*
X38100000Y-424180000D03*
X45720000Y-424180000D03*
X45720000Y-421640000D03*
X45720000Y-419100000D03*
X45720000Y-416560000D03*
X45720000Y-414020000D03*
X45720000Y-411480000D03*
X45720000Y-408940000D03*
X45720000Y-406400000D03*
X296545000Y-363220000D03*
X296545000Y-360680000D03*
D14*
X296545000Y-355600000D03*
D13*
X296545000Y-358140000D03*
X296545000Y-365760000D03*
X296545000Y-368300000D03*
X296545000Y-370840000D03*
X304165000Y-370840000D03*
X304165000Y-368300000D03*
X304165000Y-365760000D03*
X304165000Y-363220000D03*
X304165000Y-360680000D03*
X304165000Y-358140000D03*
X304165000Y-355600000D03*
X275590000Y-363220000D03*
X275590000Y-360680000D03*
X275590000Y-358140000D03*
D14*
X275590000Y-355600000D03*
D13*
X275590000Y-365760000D03*
X275590000Y-368300000D03*
X275590000Y-370840000D03*
X275590000Y-373380000D03*
X283210000Y-373380000D03*
X283210000Y-370840000D03*
X283210000Y-368300000D03*
X283210000Y-365760000D03*
X283210000Y-363220000D03*
X283210000Y-360680000D03*
X283210000Y-358140000D03*
X283210000Y-355600000D03*
X254000000Y-363220000D03*
X254000000Y-360680000D03*
X254000000Y-358140000D03*
D14*
X254000000Y-355600000D03*
D13*
X254000000Y-365760000D03*
X254000000Y-368300000D03*
X254000000Y-370840000D03*
X254000000Y-373380000D03*
X261620000Y-373380000D03*
X261620000Y-370840000D03*
X261620000Y-368300000D03*
X261620000Y-365760000D03*
X261620000Y-363220000D03*
X261620000Y-360680000D03*
X261620000Y-358140000D03*
X261620000Y-355600000D03*
X232410000Y-363220000D03*
X232410000Y-360680000D03*
X232410000Y-358140000D03*
D14*
X232410000Y-355600000D03*
D13*
X232410000Y-365760000D03*
X232410000Y-368300000D03*
X232410000Y-370840000D03*
X232410000Y-373380000D03*
X240030000Y-373380000D03*
X240030000Y-370840000D03*
X240030000Y-368300000D03*
X240030000Y-365760000D03*
X240030000Y-363220000D03*
X240030000Y-360680000D03*
X240030000Y-358140000D03*
X240030000Y-355600000D03*
X210820000Y-363220000D03*
X210820000Y-360680000D03*
D14*
X210820000Y-355600000D03*
D13*
X210820000Y-358140000D03*
X210820000Y-365760000D03*
X210820000Y-368300000D03*
X210820000Y-370840000D03*
X218440000Y-370840000D03*
X218440000Y-368300000D03*
X218440000Y-365760000D03*
X218440000Y-363220000D03*
X218440000Y-360680000D03*
X218440000Y-358140000D03*
X218440000Y-355600000D03*
X189230000Y-363220000D03*
X189230000Y-360680000D03*
D14*
X189230000Y-355600000D03*
D13*
X189230000Y-358140000D03*
X189230000Y-365760000D03*
X189230000Y-368300000D03*
X189230000Y-370840000D03*
X196850000Y-370840000D03*
X196850000Y-368300000D03*
X196850000Y-365760000D03*
X196850000Y-363220000D03*
X196850000Y-360680000D03*
X196850000Y-358140000D03*
X196850000Y-355600000D03*
X167640000Y-363220000D03*
X167640000Y-360680000D03*
D14*
X167640000Y-355600000D03*
D13*
X167640000Y-358140000D03*
X167640000Y-365760000D03*
X167640000Y-368300000D03*
X167640000Y-370840000D03*
X175260000Y-370840000D03*
X175260000Y-368300000D03*
X175260000Y-365760000D03*
X175260000Y-363220000D03*
X175260000Y-360680000D03*
X175260000Y-358140000D03*
X175260000Y-355600000D03*
X146050000Y-365760000D03*
X146050000Y-363220000D03*
X146050000Y-360680000D03*
X146050000Y-358140000D03*
D14*
X146050000Y-355600000D03*
D13*
X146050000Y-368300000D03*
X146050000Y-370840000D03*
X146050000Y-373380000D03*
X146050000Y-375920000D03*
X153670000Y-375920000D03*
X153670000Y-373380000D03*
X153670000Y-370840000D03*
X153670000Y-368300000D03*
X153670000Y-365760000D03*
X153670000Y-363220000D03*
X153670000Y-360680000D03*
X153670000Y-358140000D03*
X153670000Y-355600000D03*
X124460000Y-365760000D03*
X124460000Y-363220000D03*
X124460000Y-360680000D03*
X124460000Y-358140000D03*
D14*
X124460000Y-355600000D03*
D13*
X124460000Y-368300000D03*
X124460000Y-370840000D03*
X124460000Y-373380000D03*
X124460000Y-375920000D03*
X132080000Y-375920000D03*
X132080000Y-373380000D03*
X132080000Y-370840000D03*
X132080000Y-368300000D03*
X132080000Y-365760000D03*
X132080000Y-363220000D03*
X132080000Y-360680000D03*
X132080000Y-358140000D03*
X132080000Y-355600000D03*
D14*
X96520000Y-355600000D03*
D13*
X96520000Y-358140000D03*
X96520000Y-360680000D03*
X96520000Y-363220000D03*
X96520000Y-365760000D03*
X96520000Y-368300000D03*
X96520000Y-370840000D03*
X96520000Y-373380000D03*
X96520000Y-375920000D03*
X96520000Y-378460000D03*
X96520000Y-381000000D03*
X96520000Y-383540000D03*
X111760000Y-383540000D03*
X111760000Y-381000000D03*
X111760000Y-378460000D03*
X111760000Y-375920000D03*
X111760000Y-373380000D03*
X111760000Y-370840000D03*
X111760000Y-368300000D03*
X111760000Y-365760000D03*
X111760000Y-363220000D03*
X111760000Y-360680000D03*
X111760000Y-358140000D03*
X111760000Y-355600000D03*
D14*
X73660000Y-355600000D03*
D13*
X73660000Y-358140000D03*
X73660000Y-360680000D03*
X73660000Y-363220000D03*
X73660000Y-365760000D03*
X73660000Y-368300000D03*
X73660000Y-370840000D03*
X73660000Y-373380000D03*
X73660000Y-375920000D03*
X73660000Y-378460000D03*
X73660000Y-381000000D03*
X73660000Y-383540000D03*
X88900000Y-383540000D03*
X88900000Y-381000000D03*
X88900000Y-378460000D03*
X88900000Y-375920000D03*
X88900000Y-373380000D03*
X88900000Y-370840000D03*
X88900000Y-368300000D03*
X88900000Y-365760000D03*
X88900000Y-363220000D03*
X88900000Y-360680000D03*
X88900000Y-358140000D03*
X88900000Y-355600000D03*
D14*
X37465000Y-355600000D03*
D13*
X37465000Y-358140000D03*
X37465000Y-360680000D03*
X37465000Y-363220000D03*
X37465000Y-365760000D03*
X37465000Y-368300000D03*
X37465000Y-370840000D03*
X37465000Y-373380000D03*
X37465000Y-375920000D03*
X37465000Y-378460000D03*
X37465000Y-381000000D03*
X37465000Y-383540000D03*
X52705000Y-383540000D03*
X52705000Y-381000000D03*
X52705000Y-378460000D03*
X52705000Y-375920000D03*
X52705000Y-373380000D03*
X52705000Y-370840000D03*
X52705000Y-368300000D03*
X52705000Y-365760000D03*
X52705000Y-363220000D03*
X52705000Y-360680000D03*
X52705000Y-358140000D03*
X52705000Y-355600000D03*
X297180000Y-313690000D03*
X297180000Y-311150000D03*
X297180000Y-308610000D03*
D14*
X297180000Y-306070000D03*
D13*
X297180000Y-316230000D03*
X297180000Y-318770000D03*
X297180000Y-321310000D03*
X297180000Y-323850000D03*
X304800000Y-323850000D03*
X304800000Y-321310000D03*
X304800000Y-318770000D03*
X304800000Y-316230000D03*
X304800000Y-313690000D03*
X304800000Y-311150000D03*
X304800000Y-308610000D03*
X304800000Y-306070000D03*
X275590000Y-313690000D03*
X275590000Y-311150000D03*
X275590000Y-308610000D03*
D14*
X275590000Y-306070000D03*
D13*
X275590000Y-316230000D03*
X275590000Y-318770000D03*
X275590000Y-321310000D03*
X275590000Y-323850000D03*
X283210000Y-323850000D03*
X283210000Y-321310000D03*
X283210000Y-318770000D03*
X283210000Y-316230000D03*
X283210000Y-313690000D03*
X283210000Y-311150000D03*
X283210000Y-308610000D03*
X283210000Y-306070000D03*
X254000000Y-313690000D03*
X254000000Y-311150000D03*
X254000000Y-308610000D03*
D14*
X254000000Y-306070000D03*
D13*
X254000000Y-316230000D03*
X254000000Y-318770000D03*
X254000000Y-321310000D03*
X254000000Y-323850000D03*
X261620000Y-323850000D03*
X261620000Y-321310000D03*
X261620000Y-318770000D03*
X261620000Y-316230000D03*
X261620000Y-313690000D03*
X261620000Y-311150000D03*
X261620000Y-308610000D03*
X261620000Y-306070000D03*
X232410000Y-313690000D03*
X232410000Y-311150000D03*
D14*
X232410000Y-306070000D03*
D13*
X232410000Y-308610000D03*
X232410000Y-316230000D03*
X232410000Y-318770000D03*
X232410000Y-321310000D03*
X240030000Y-321310000D03*
X240030000Y-318770000D03*
X240030000Y-316230000D03*
X240030000Y-313690000D03*
X240030000Y-311150000D03*
X240030000Y-308610000D03*
X240030000Y-306070000D03*
X210820000Y-313690000D03*
X210820000Y-311150000D03*
D14*
X210820000Y-306070000D03*
D13*
X210820000Y-308610000D03*
X210820000Y-316230000D03*
X210820000Y-318770000D03*
X210820000Y-321310000D03*
X218440000Y-321310000D03*
X218440000Y-318770000D03*
X218440000Y-316230000D03*
X218440000Y-313690000D03*
X218440000Y-311150000D03*
X218440000Y-308610000D03*
X218440000Y-306070000D03*
X189230000Y-313690000D03*
X189230000Y-311150000D03*
D14*
X189230000Y-306070000D03*
D13*
X189230000Y-308610000D03*
X189230000Y-316230000D03*
X189230000Y-318770000D03*
X189230000Y-321310000D03*
X196850000Y-321310000D03*
X196850000Y-318770000D03*
X196850000Y-316230000D03*
X196850000Y-313690000D03*
X196850000Y-311150000D03*
X196850000Y-308610000D03*
X196850000Y-306070000D03*
X167640000Y-313690000D03*
X167640000Y-311150000D03*
X167640000Y-308610000D03*
D14*
X167640000Y-306070000D03*
D13*
X167640000Y-316230000D03*
X167640000Y-318770000D03*
X167640000Y-321310000D03*
X167640000Y-323850000D03*
X175260000Y-323850000D03*
X175260000Y-321310000D03*
X175260000Y-318770000D03*
X175260000Y-316230000D03*
X175260000Y-313690000D03*
X175260000Y-311150000D03*
X175260000Y-308610000D03*
X175260000Y-306070000D03*
X146050000Y-316230000D03*
X146050000Y-313690000D03*
X146050000Y-311150000D03*
X146050000Y-308610000D03*
D14*
X146050000Y-306070000D03*
D13*
X146050000Y-318770000D03*
X146050000Y-321310000D03*
X146050000Y-323850000D03*
X146050000Y-326390000D03*
X153670000Y-326390000D03*
X153670000Y-323850000D03*
X153670000Y-321310000D03*
X153670000Y-318770000D03*
X153670000Y-316230000D03*
X153670000Y-313690000D03*
X153670000Y-311150000D03*
X153670000Y-308610000D03*
X153670000Y-306070000D03*
X124460000Y-316230000D03*
X124460000Y-313690000D03*
X124460000Y-311150000D03*
X124460000Y-308610000D03*
D14*
X124460000Y-306070000D03*
D13*
X124460000Y-318770000D03*
X124460000Y-321310000D03*
X124460000Y-323850000D03*
X124460000Y-326390000D03*
X132080000Y-326390000D03*
X132080000Y-323850000D03*
X132080000Y-321310000D03*
X132080000Y-318770000D03*
X132080000Y-316230000D03*
X132080000Y-313690000D03*
X132080000Y-311150000D03*
X132080000Y-308610000D03*
X132080000Y-306070000D03*
D14*
X96520000Y-306070000D03*
D13*
X96520000Y-308610000D03*
X96520000Y-311150000D03*
X96520000Y-313690000D03*
X96520000Y-316230000D03*
X96520000Y-318770000D03*
X96520000Y-321310000D03*
X96520000Y-323850000D03*
X96520000Y-326390000D03*
X96520000Y-328930000D03*
X96520000Y-331470000D03*
X96520000Y-334010000D03*
X111760000Y-334010000D03*
X111760000Y-331470000D03*
X111760000Y-328930000D03*
X111760000Y-326390000D03*
X111760000Y-323850000D03*
X111760000Y-321310000D03*
X111760000Y-318770000D03*
X111760000Y-316230000D03*
X111760000Y-313690000D03*
X111760000Y-311150000D03*
X111760000Y-308610000D03*
X111760000Y-306070000D03*
D14*
X73660000Y-306070000D03*
D13*
X73660000Y-308610000D03*
X73660000Y-311150000D03*
X73660000Y-313690000D03*
X73660000Y-316230000D03*
X73660000Y-318770000D03*
X73660000Y-321310000D03*
X73660000Y-323850000D03*
X73660000Y-326390000D03*
X73660000Y-328930000D03*
X73660000Y-331470000D03*
X73660000Y-334010000D03*
X88900000Y-334010000D03*
X88900000Y-331470000D03*
X88900000Y-328930000D03*
X88900000Y-326390000D03*
X88900000Y-323850000D03*
X88900000Y-321310000D03*
X88900000Y-318770000D03*
X88900000Y-316230000D03*
X88900000Y-313690000D03*
X88900000Y-311150000D03*
X88900000Y-308610000D03*
X88900000Y-306070000D03*
D14*
X37465000Y-306070000D03*
D13*
X37465000Y-308610000D03*
X37465000Y-311150000D03*
X37465000Y-313690000D03*
X37465000Y-316230000D03*
X37465000Y-318770000D03*
X37465000Y-321310000D03*
X37465000Y-323850000D03*
X37465000Y-326390000D03*
X37465000Y-328930000D03*
X37465000Y-331470000D03*
X37465000Y-334010000D03*
X52705000Y-334010000D03*
X52705000Y-331470000D03*
X52705000Y-328930000D03*
X52705000Y-326390000D03*
X52705000Y-323850000D03*
X52705000Y-321310000D03*
X52705000Y-318770000D03*
X52705000Y-316230000D03*
X52705000Y-313690000D03*
X52705000Y-311150000D03*
X52705000Y-308610000D03*
X52705000Y-306070000D03*
X297180000Y-262890000D03*
X297180000Y-260350000D03*
X297180000Y-257810000D03*
D14*
X297180000Y-255270000D03*
D13*
X297180000Y-265430000D03*
X297180000Y-267970000D03*
X297180000Y-270510000D03*
X297180000Y-273050000D03*
X304800000Y-273050000D03*
X304800000Y-270510000D03*
X304800000Y-267970000D03*
X304800000Y-265430000D03*
X304800000Y-262890000D03*
X304800000Y-260350000D03*
X304800000Y-257810000D03*
X304800000Y-255270000D03*
X275590000Y-262890000D03*
X275590000Y-260350000D03*
X275590000Y-257810000D03*
D14*
X275590000Y-255270000D03*
D13*
X275590000Y-265430000D03*
X275590000Y-267970000D03*
X275590000Y-270510000D03*
X275590000Y-273050000D03*
X283210000Y-273050000D03*
X283210000Y-270510000D03*
X283210000Y-267970000D03*
X283210000Y-265430000D03*
X283210000Y-262890000D03*
X283210000Y-260350000D03*
X283210000Y-257810000D03*
X283210000Y-255270000D03*
X254000000Y-262890000D03*
X254000000Y-260350000D03*
X254000000Y-257810000D03*
D14*
X254000000Y-255270000D03*
D13*
X254000000Y-265430000D03*
X254000000Y-267970000D03*
X254000000Y-270510000D03*
X254000000Y-273050000D03*
X261620000Y-273050000D03*
X261620000Y-270510000D03*
X261620000Y-267970000D03*
X261620000Y-265430000D03*
X261620000Y-262890000D03*
X261620000Y-260350000D03*
X261620000Y-257810000D03*
X261620000Y-255270000D03*
D14*
X210820000Y-255270000D03*
D13*
X210820000Y-257810000D03*
X210820000Y-260350000D03*
X210820000Y-262890000D03*
X210820000Y-265430000D03*
X210820000Y-267970000D03*
X210820000Y-270510000D03*
X210820000Y-273050000D03*
X210820000Y-275590000D03*
X210820000Y-278130000D03*
X218440000Y-278130000D03*
X218440000Y-275590000D03*
X218440000Y-273050000D03*
X218440000Y-270510000D03*
X218440000Y-267970000D03*
X218440000Y-265430000D03*
X218440000Y-262890000D03*
X218440000Y-260350000D03*
X218440000Y-257810000D03*
X218440000Y-255270000D03*
X189230000Y-262890000D03*
X189230000Y-260350000D03*
X189230000Y-257810000D03*
D14*
X189230000Y-255270000D03*
D13*
X189230000Y-265430000D03*
X189230000Y-267970000D03*
X189230000Y-270510000D03*
X189230000Y-273050000D03*
X196850000Y-273050000D03*
X196850000Y-270510000D03*
X196850000Y-267970000D03*
X196850000Y-265430000D03*
X196850000Y-262890000D03*
X196850000Y-260350000D03*
X196850000Y-257810000D03*
X196850000Y-255270000D03*
X167640000Y-262890000D03*
X167640000Y-260350000D03*
X167640000Y-257810000D03*
D14*
X167640000Y-255270000D03*
D13*
X167640000Y-265430000D03*
X167640000Y-267970000D03*
X167640000Y-270510000D03*
X167640000Y-273050000D03*
X175260000Y-273050000D03*
X175260000Y-270510000D03*
X175260000Y-267970000D03*
X175260000Y-265430000D03*
X175260000Y-262890000D03*
X175260000Y-260350000D03*
X175260000Y-257810000D03*
X175260000Y-255270000D03*
X146050000Y-262890000D03*
X146050000Y-260350000D03*
D14*
X146050000Y-255270000D03*
D13*
X146050000Y-257810000D03*
X146050000Y-265430000D03*
X146050000Y-267970000D03*
X146050000Y-270510000D03*
X153670000Y-270510000D03*
X153670000Y-267970000D03*
X153670000Y-265430000D03*
X153670000Y-262890000D03*
X153670000Y-260350000D03*
X153670000Y-257810000D03*
X153670000Y-255270000D03*
X124460000Y-262890000D03*
X124460000Y-260350000D03*
D14*
X124460000Y-255270000D03*
D13*
X124460000Y-257810000D03*
X124460000Y-265430000D03*
X124460000Y-267970000D03*
X124460000Y-270510000D03*
X132080000Y-270510000D03*
X132080000Y-267970000D03*
X132080000Y-265430000D03*
X132080000Y-262890000D03*
X132080000Y-260350000D03*
X132080000Y-257810000D03*
X132080000Y-255270000D03*
X102870000Y-262890000D03*
X102870000Y-260350000D03*
X102870000Y-257810000D03*
D14*
X102870000Y-255270000D03*
D13*
X102870000Y-265430000D03*
X102870000Y-267970000D03*
X102870000Y-270510000D03*
X102870000Y-273050000D03*
X110490000Y-273050000D03*
X110490000Y-270510000D03*
X110490000Y-267970000D03*
X110490000Y-265430000D03*
X110490000Y-262890000D03*
X110490000Y-260350000D03*
X110490000Y-257810000D03*
X110490000Y-255270000D03*
X81280000Y-262890000D03*
X81280000Y-260350000D03*
X81280000Y-257810000D03*
D14*
X81280000Y-255270000D03*
D13*
X81280000Y-265430000D03*
X81280000Y-267970000D03*
X81280000Y-270510000D03*
X81280000Y-273050000D03*
X88900000Y-273050000D03*
X88900000Y-270510000D03*
X88900000Y-267970000D03*
X88900000Y-265430000D03*
X88900000Y-262890000D03*
X88900000Y-260350000D03*
X88900000Y-257810000D03*
X88900000Y-255270000D03*
X38100000Y-262890000D03*
X38100000Y-260350000D03*
D14*
X38100000Y-255270000D03*
D13*
X38100000Y-257810000D03*
X38100000Y-265430000D03*
X38100000Y-267970000D03*
X38100000Y-270510000D03*
X45720000Y-270510000D03*
X45720000Y-267970000D03*
X45720000Y-265430000D03*
X45720000Y-262890000D03*
X45720000Y-260350000D03*
X45720000Y-257810000D03*
X45720000Y-255270000D03*
D14*
X282575000Y-201930000D03*
D13*
X282575000Y-204470000D03*
X282575000Y-207010000D03*
X282575000Y-209550000D03*
X282575000Y-212090000D03*
X282575000Y-214630000D03*
X282575000Y-217170000D03*
X282575000Y-219710000D03*
X282575000Y-222250000D03*
X282575000Y-224790000D03*
X290195000Y-224790000D03*
X290195000Y-222250000D03*
X290195000Y-219710000D03*
X290195000Y-217170000D03*
X290195000Y-214630000D03*
X290195000Y-212090000D03*
X290195000Y-209550000D03*
X290195000Y-207010000D03*
X290195000Y-204470000D03*
X290195000Y-201930000D03*
X242570000Y-207010000D03*
X242570000Y-209550000D03*
X242570000Y-212090000D03*
X242570000Y-214630000D03*
X242570000Y-217170000D03*
X242570000Y-219710000D03*
X242570000Y-222250000D03*
X242570000Y-224790000D03*
X234950000Y-224790000D03*
X234950000Y-222250000D03*
X234950000Y-219710000D03*
X234950000Y-217170000D03*
D14*
X234950000Y-207010000D03*
D13*
X234950000Y-209550000D03*
X234950000Y-212090000D03*
X234950000Y-214630000D03*
D14*
X208280000Y-201930000D03*
D13*
X208280000Y-204470000D03*
X208280000Y-207010000D03*
X208280000Y-209550000D03*
X208280000Y-212090000D03*
X208280000Y-214630000D03*
X208280000Y-217170000D03*
X208280000Y-219710000D03*
X208280000Y-222250000D03*
X208280000Y-224790000D03*
X215900000Y-224790000D03*
X215900000Y-222250000D03*
X215900000Y-219710000D03*
X215900000Y-217170000D03*
X215900000Y-214630000D03*
X215900000Y-212090000D03*
X215900000Y-209550000D03*
X215900000Y-207010000D03*
X215900000Y-204470000D03*
X215900000Y-201930000D03*
D14*
X189230000Y-201930000D03*
D13*
X189230000Y-204470000D03*
X189230000Y-207010000D03*
X189230000Y-209550000D03*
X189230000Y-212090000D03*
X189230000Y-214630000D03*
X189230000Y-217170000D03*
X189230000Y-219710000D03*
X189230000Y-222250000D03*
X189230000Y-224790000D03*
X196850000Y-224790000D03*
X196850000Y-222250000D03*
X196850000Y-219710000D03*
X196850000Y-217170000D03*
X196850000Y-214630000D03*
X196850000Y-212090000D03*
X196850000Y-209550000D03*
X196850000Y-207010000D03*
X196850000Y-204470000D03*
X196850000Y-201930000D03*
X167640000Y-209550000D03*
X167640000Y-207010000D03*
X167640000Y-204470000D03*
D14*
X167640000Y-201930000D03*
D13*
X167640000Y-212090000D03*
X167640000Y-214630000D03*
X167640000Y-217170000D03*
X167640000Y-219710000D03*
X175260000Y-219710000D03*
X175260000Y-217170000D03*
X175260000Y-214630000D03*
X175260000Y-212090000D03*
X175260000Y-209550000D03*
X175260000Y-207010000D03*
X175260000Y-204470000D03*
X175260000Y-201930000D03*
X146050000Y-209550000D03*
X146050000Y-207010000D03*
D14*
X146050000Y-201930000D03*
D13*
X146050000Y-204470000D03*
X146050000Y-212090000D03*
X146050000Y-214630000D03*
X146050000Y-217170000D03*
X153670000Y-217170000D03*
X153670000Y-214630000D03*
X153670000Y-212090000D03*
X153670000Y-209550000D03*
X153670000Y-207010000D03*
X153670000Y-204470000D03*
X153670000Y-201930000D03*
X124460000Y-209550000D03*
X124460000Y-207010000D03*
D14*
X124460000Y-201930000D03*
D13*
X124460000Y-204470000D03*
X124460000Y-212090000D03*
X124460000Y-214630000D03*
X124460000Y-217170000D03*
X132080000Y-217170000D03*
X132080000Y-214630000D03*
X132080000Y-212090000D03*
X132080000Y-209550000D03*
X132080000Y-207010000D03*
X132080000Y-204470000D03*
X132080000Y-201930000D03*
X102870000Y-209550000D03*
X102870000Y-207010000D03*
X102870000Y-204470000D03*
D14*
X102870000Y-201930000D03*
D13*
X102870000Y-212090000D03*
X102870000Y-214630000D03*
X102870000Y-217170000D03*
X102870000Y-219710000D03*
X110490000Y-219710000D03*
X110490000Y-217170000D03*
X110490000Y-214630000D03*
X110490000Y-212090000D03*
X110490000Y-209550000D03*
X110490000Y-207010000D03*
X110490000Y-204470000D03*
X110490000Y-201930000D03*
X81280000Y-209550000D03*
X81280000Y-207010000D03*
X81280000Y-204470000D03*
D14*
X81280000Y-201930000D03*
D13*
X81280000Y-212090000D03*
X81280000Y-214630000D03*
X81280000Y-217170000D03*
X81280000Y-219710000D03*
X88900000Y-219710000D03*
X88900000Y-217170000D03*
X88900000Y-214630000D03*
X88900000Y-212090000D03*
X88900000Y-209550000D03*
X88900000Y-207010000D03*
X88900000Y-204470000D03*
X88900000Y-201930000D03*
X38100000Y-209550000D03*
X38100000Y-207010000D03*
D14*
X38100000Y-201930000D03*
D13*
X38100000Y-204470000D03*
X38100000Y-212090000D03*
X38100000Y-214630000D03*
X38100000Y-217170000D03*
X45720000Y-217170000D03*
X45720000Y-214630000D03*
X45720000Y-212090000D03*
X45720000Y-209550000D03*
X45720000Y-207010000D03*
X45720000Y-204470000D03*
X45720000Y-201930000D03*
X295910000Y-172085000D03*
D14*
X295910000Y-169545000D03*
D13*
X295910000Y-174625000D03*
X295910000Y-177165000D03*
X303530000Y-177165000D03*
X303530000Y-174625000D03*
X303530000Y-172085000D03*
X303530000Y-169545000D03*
X275590000Y-177165000D03*
X275590000Y-174625000D03*
X275590000Y-172085000D03*
D14*
X275590000Y-169545000D03*
D13*
X275590000Y-179705000D03*
X275590000Y-182245000D03*
X275590000Y-184785000D03*
X275590000Y-187325000D03*
X283210000Y-187325000D03*
X283210000Y-184785000D03*
X283210000Y-182245000D03*
X283210000Y-179705000D03*
X283210000Y-177165000D03*
X283210000Y-174625000D03*
X283210000Y-172085000D03*
X283210000Y-169545000D03*
X232410000Y-172085000D03*
D14*
X232410000Y-169545000D03*
D13*
X232410000Y-174625000D03*
X232410000Y-177165000D03*
X240030000Y-177165000D03*
X240030000Y-174625000D03*
X240030000Y-172085000D03*
X240030000Y-169545000D03*
X210185000Y-177165000D03*
X210185000Y-174625000D03*
X210185000Y-172085000D03*
D14*
X210185000Y-169545000D03*
D13*
X210185000Y-179705000D03*
X210185000Y-182245000D03*
X210185000Y-184785000D03*
X210185000Y-187325000D03*
X217805000Y-187325000D03*
X217805000Y-184785000D03*
X217805000Y-182245000D03*
X217805000Y-179705000D03*
X217805000Y-177165000D03*
X217805000Y-174625000D03*
X217805000Y-172085000D03*
X217805000Y-169545000D03*
X266065000Y-132080000D03*
D14*
X266065000Y-129540000D03*
D13*
X266065000Y-134620000D03*
X266065000Y-137160000D03*
X273685000Y-137160000D03*
X273685000Y-134620000D03*
X273685000Y-132080000D03*
X273685000Y-129540000D03*
X264795000Y-93980000D03*
D14*
X264795000Y-91440000D03*
D13*
X264795000Y-96520000D03*
X264795000Y-99060000D03*
X272415000Y-99060000D03*
X272415000Y-96520000D03*
X272415000Y-93980000D03*
X272415000Y-91440000D03*
X189230000Y-143510000D03*
X189230000Y-140970000D03*
X189230000Y-138430000D03*
D14*
X189230000Y-135890000D03*
D13*
X189230000Y-146050000D03*
X189230000Y-148590000D03*
X189230000Y-151130000D03*
X189230000Y-153670000D03*
X196850000Y-153670000D03*
X196850000Y-151130000D03*
X196850000Y-148590000D03*
X196850000Y-146050000D03*
X196850000Y-143510000D03*
X196850000Y-140970000D03*
X196850000Y-138430000D03*
X196850000Y-135890000D03*
X189230000Y-99695000D03*
D14*
X189230000Y-97155000D03*
D13*
X189230000Y-102235000D03*
X189230000Y-104775000D03*
X196850000Y-104775000D03*
X196850000Y-102235000D03*
X196850000Y-99695000D03*
X196850000Y-97155000D03*
X102870000Y-153035000D03*
X102870000Y-150495000D03*
D14*
X102870000Y-145415000D03*
D13*
X102870000Y-147955000D03*
X102870000Y-155575000D03*
X102870000Y-158115000D03*
X102870000Y-160655000D03*
X110490000Y-160655000D03*
X110490000Y-158115000D03*
X110490000Y-155575000D03*
X110490000Y-153035000D03*
X110490000Y-150495000D03*
X110490000Y-147955000D03*
X110490000Y-145415000D03*
X81280000Y-153035000D03*
X81280000Y-150495000D03*
D14*
X81280000Y-145415000D03*
D13*
X81280000Y-147955000D03*
X81280000Y-155575000D03*
X81280000Y-158115000D03*
X81280000Y-160655000D03*
X88900000Y-160655000D03*
X88900000Y-158115000D03*
X88900000Y-155575000D03*
X88900000Y-153035000D03*
X88900000Y-150495000D03*
X88900000Y-147955000D03*
X88900000Y-145415000D03*
X59690000Y-153035000D03*
X59690000Y-150495000D03*
D14*
X59690000Y-145415000D03*
D13*
X59690000Y-147955000D03*
X59690000Y-155575000D03*
X59690000Y-158115000D03*
X59690000Y-160655000D03*
X67310000Y-160655000D03*
X67310000Y-158115000D03*
X67310000Y-155575000D03*
X67310000Y-153035000D03*
X67310000Y-150495000D03*
X67310000Y-147955000D03*
X67310000Y-145415000D03*
X38100000Y-153035000D03*
X38100000Y-150495000D03*
X38100000Y-147955000D03*
D14*
X38100000Y-145415000D03*
D13*
X38100000Y-155575000D03*
X38100000Y-158115000D03*
X38100000Y-160655000D03*
X38100000Y-163195000D03*
X45720000Y-163195000D03*
X45720000Y-160655000D03*
X45720000Y-158115000D03*
X45720000Y-155575000D03*
X45720000Y-153035000D03*
X45720000Y-150495000D03*
X45720000Y-147955000D03*
X45720000Y-145415000D03*
X311150000Y-539115000D03*
X311150000Y-542925000D03*
D11*
X156210000Y-464820000D03*
X144780000Y-464820000D03*
X144780000Y-467360000D03*
X156210000Y-467360000D03*
X144780000Y-482600000D03*
X156210000Y-482600000D03*
X156210000Y-469900000D03*
X144780000Y-469900000D03*
X144780000Y-472440000D03*
X156210000Y-472440000D03*
X156210000Y-474980000D03*
X144780000Y-474980000D03*
X144780000Y-477520000D03*
X156210000Y-477520000D03*
X156210000Y-480060000D03*
X144780000Y-480060000D03*
X156210000Y-485140000D03*
X144780000Y-485140000D03*
X52705000Y-463550000D03*
X52705000Y-474980000D03*
X36195000Y-459105000D03*
X47625000Y-459105000D03*
X203835000Y-463550000D03*
X203835000Y-474980000D03*
X306705000Y-459105000D03*
X295275000Y-459105000D03*
X76835000Y-459105000D03*
X65405000Y-459105000D03*
X187325000Y-429895000D03*
X198755000Y-429895000D03*
D10*
G36*
X132515000Y-558365000D02*
G01*
X132515000Y-550345000D01*
X134185000Y-550345000D01*
X134185000Y-558365000D01*
X132515000Y-558365000D01*
G37*
G36*
X129975000Y-558365000D02*
G01*
X129975000Y-550345000D01*
X131645000Y-550345000D01*
X131645000Y-558365000D01*
X129975000Y-558365000D01*
G37*
G36*
X127435000Y-558365000D02*
G01*
X127435000Y-550345000D01*
X129105000Y-550345000D01*
X129105000Y-558365000D01*
X127435000Y-558365000D01*
G37*
G36*
X124641000Y-558365000D02*
G01*
X124641000Y-550345000D01*
X126819000Y-550345000D01*
X126819000Y-558365000D01*
X124641000Y-558365000D01*
G37*
G36*
X122101000Y-558365000D02*
G01*
X122101000Y-550345000D01*
X124279000Y-550345000D01*
X124279000Y-558365000D01*
X122101000Y-558365000D01*
G37*
G36*
X119561000Y-558365000D02*
G01*
X119561000Y-550345000D01*
X121739000Y-550345000D01*
X121739000Y-558365000D01*
X119561000Y-558365000D01*
G37*
G36*
X117021000Y-558365000D02*
G01*
X117021000Y-550345000D01*
X119199000Y-550345000D01*
X119199000Y-558365000D01*
X117021000Y-558365000D01*
G37*
G36*
X135055000Y-558365000D02*
G01*
X135055000Y-550345000D01*
X136725000Y-550345000D01*
X136725000Y-558365000D01*
X135055000Y-558365000D01*
G37*
G36*
X137595000Y-558365000D02*
G01*
X137595000Y-550345000D01*
X139265000Y-550345000D01*
X139265000Y-558365000D01*
X137595000Y-558365000D01*
G37*
G36*
X140135000Y-558365000D02*
G01*
X140135000Y-550345000D01*
X141805000Y-550345000D01*
X141805000Y-558365000D01*
X140135000Y-558365000D01*
G37*
G36*
X142675000Y-558365000D02*
G01*
X142675000Y-550345000D01*
X144345000Y-550345000D01*
X144345000Y-558365000D01*
X142675000Y-558365000D01*
G37*
G36*
X145215000Y-558365000D02*
G01*
X145215000Y-550345000D01*
X146885000Y-550345000D01*
X146885000Y-558365000D01*
X145215000Y-558365000D01*
G37*
G36*
X147755000Y-558365000D02*
G01*
X147755000Y-550345000D01*
X149425000Y-550345000D01*
X149425000Y-558365000D01*
X147755000Y-558365000D01*
G37*
G36*
X150295000Y-558365000D02*
G01*
X150295000Y-550345000D01*
X151965000Y-550345000D01*
X151965000Y-558365000D01*
X150295000Y-558365000D01*
G37*
G36*
X152835000Y-558365000D02*
G01*
X152835000Y-550345000D01*
X154505000Y-550345000D01*
X154505000Y-558365000D01*
X152835000Y-558365000D01*
G37*
G36*
X155375000Y-558365000D02*
G01*
X155375000Y-550345000D01*
X157045000Y-550345000D01*
X157045000Y-558365000D01*
X155375000Y-558365000D01*
G37*
G36*
X157915000Y-558365000D02*
G01*
X157915000Y-550345000D01*
X159585000Y-550345000D01*
X159585000Y-558365000D01*
X157915000Y-558365000D01*
G37*
G36*
X160455000Y-558365000D02*
G01*
X160455000Y-550345000D01*
X162125000Y-550345000D01*
X162125000Y-558365000D01*
X160455000Y-558365000D01*
G37*
G36*
X223701000Y-558365000D02*
G01*
X223701000Y-550345000D01*
X225879000Y-550345000D01*
X225879000Y-558365000D01*
X223701000Y-558365000D01*
G37*
G36*
X221161000Y-558365000D02*
G01*
X221161000Y-550345000D01*
X223339000Y-550345000D01*
X223339000Y-558365000D01*
X221161000Y-558365000D01*
G37*
G36*
X218621000Y-558365000D02*
G01*
X218621000Y-550345000D01*
X220799000Y-550345000D01*
X220799000Y-558365000D01*
X218621000Y-558365000D01*
G37*
G36*
X216081000Y-558365000D02*
G01*
X216081000Y-550345000D01*
X218259000Y-550345000D01*
X218259000Y-558365000D01*
X216081000Y-558365000D01*
G37*
G36*
X213541000Y-558365000D02*
G01*
X213541000Y-550345000D01*
X215719000Y-550345000D01*
X215719000Y-558365000D01*
X213541000Y-558365000D01*
G37*
G36*
X211255000Y-558365000D02*
G01*
X211255000Y-550345000D01*
X212925000Y-550345000D01*
X212925000Y-558365000D01*
X211255000Y-558365000D01*
G37*
G36*
X208715000Y-558365000D02*
G01*
X208715000Y-550345000D01*
X210385000Y-550345000D01*
X210385000Y-558365000D01*
X208715000Y-558365000D01*
G37*
G36*
X206175000Y-558365000D02*
G01*
X206175000Y-550345000D01*
X207845000Y-550345000D01*
X207845000Y-558365000D01*
X206175000Y-558365000D01*
G37*
G36*
X203635000Y-558365000D02*
G01*
X203635000Y-550345000D01*
X205305000Y-550345000D01*
X205305000Y-558365000D01*
X203635000Y-558365000D01*
G37*
G36*
X201095000Y-558365000D02*
G01*
X201095000Y-550345000D01*
X202765000Y-550345000D01*
X202765000Y-558365000D01*
X201095000Y-558365000D01*
G37*
G36*
X198555000Y-558365000D02*
G01*
X198555000Y-550345000D01*
X200225000Y-550345000D01*
X200225000Y-558365000D01*
X198555000Y-558365000D01*
G37*
G36*
X196015000Y-558365000D02*
G01*
X196015000Y-550345000D01*
X197685000Y-550345000D01*
X197685000Y-558365000D01*
X196015000Y-558365000D01*
G37*
G36*
X193475000Y-558365000D02*
G01*
X193475000Y-550345000D01*
X195145000Y-550345000D01*
X195145000Y-558365000D01*
X193475000Y-558365000D01*
G37*
G36*
X190935000Y-558365000D02*
G01*
X190935000Y-550345000D01*
X192605000Y-550345000D01*
X192605000Y-558365000D01*
X190935000Y-558365000D01*
G37*
G36*
X188395000Y-558365000D02*
G01*
X188395000Y-550345000D01*
X190065000Y-550345000D01*
X190065000Y-558365000D01*
X188395000Y-558365000D01*
G37*
G36*
X185855000Y-558365000D02*
G01*
X185855000Y-550345000D01*
X187525000Y-550345000D01*
X187525000Y-558365000D01*
X185855000Y-558365000D01*
G37*
G36*
X183315000Y-558365000D02*
G01*
X183315000Y-550345000D01*
X184985000Y-550345000D01*
X184985000Y-558365000D01*
X183315000Y-558365000D01*
G37*
G36*
X180775000Y-558365000D02*
G01*
X180775000Y-550345000D01*
X182445000Y-550345000D01*
X182445000Y-558365000D01*
X180775000Y-558365000D01*
G37*
G36*
X178235000Y-558365000D02*
G01*
X178235000Y-550345000D01*
X179905000Y-550345000D01*
X179905000Y-558365000D01*
X178235000Y-558365000D01*
G37*
G36*
X175695000Y-558365000D02*
G01*
X175695000Y-550345000D01*
X177365000Y-550345000D01*
X177365000Y-558365000D01*
X175695000Y-558365000D01*
G37*
G36*
X173155000Y-558365000D02*
G01*
X173155000Y-550345000D01*
X174825000Y-550345000D01*
X174825000Y-558365000D01*
X173155000Y-558365000D01*
G37*
G36*
X170615000Y-558365000D02*
G01*
X170615000Y-550345000D01*
X172285000Y-550345000D01*
X172285000Y-558365000D01*
X170615000Y-558365000D01*
G37*
G36*
X168075000Y-558365000D02*
G01*
X168075000Y-550345000D01*
X169745000Y-550345000D01*
X169745000Y-558365000D01*
X168075000Y-558365000D01*
G37*
G36*
X165535000Y-558365000D02*
G01*
X165535000Y-550345000D01*
X167205000Y-550345000D01*
X167205000Y-558365000D01*
X165535000Y-558365000D01*
G37*
G36*
X162995000Y-558365000D02*
G01*
X162995000Y-550345000D01*
X164665000Y-550345000D01*
X164665000Y-558365000D01*
X162995000Y-558365000D01*
G37*
D11*
X225425000Y-355600000D03*
X225425000Y-367030000D03*
X203200000Y-306070000D03*
X203200000Y-317500000D03*
X225425000Y-317500000D03*
X225425000Y-306070000D03*
X47625000Y-401955000D03*
X36195000Y-401955000D03*
X117475000Y-406400000D03*
X117475000Y-417830000D03*
X203200000Y-417830000D03*
X203200000Y-406400000D03*
X295275000Y-401955000D03*
X306705000Y-401955000D03*
X36195000Y-351155000D03*
X47625000Y-351155000D03*
X118110000Y-367030000D03*
X118110000Y-355600000D03*
X203200000Y-355600000D03*
X203200000Y-367030000D03*
X307340000Y-351155000D03*
X295910000Y-351155000D03*
X47625000Y-301625000D03*
X36195000Y-301625000D03*
X117475000Y-317500000D03*
X117475000Y-306070000D03*
X182245000Y-306070000D03*
X182245000Y-317500000D03*
X307340000Y-301625000D03*
X295910000Y-301625000D03*
X139700000Y-266700000D03*
X139700000Y-255270000D03*
X47625000Y-250825000D03*
X36195000Y-250825000D03*
X117475000Y-255270000D03*
X117475000Y-266700000D03*
X203200000Y-255270000D03*
X203200000Y-266700000D03*
X306705000Y-250825000D03*
X295275000Y-250825000D03*
X245745000Y-274320000D03*
X234315000Y-274320000D03*
X234315000Y-271780000D03*
X245745000Y-271780000D03*
X245745000Y-269240000D03*
X234315000Y-269240000D03*
X234315000Y-266700000D03*
X245745000Y-266700000D03*
X234315000Y-264160000D03*
X245745000Y-264160000D03*
X245745000Y-261620000D03*
X234315000Y-261620000D03*
X234315000Y-259080000D03*
X245745000Y-259080000D03*
X245745000Y-256540000D03*
X234315000Y-256540000D03*
X139065000Y-201930000D03*
X139065000Y-213360000D03*
X47625000Y-197485000D03*
X36195000Y-197485000D03*
X117475000Y-213360000D03*
X117475000Y-201930000D03*
X154305000Y-197485000D03*
X165735000Y-197485000D03*
X133350000Y-197485000D03*
X144780000Y-197485000D03*
X165735000Y-247650000D03*
X154305000Y-247650000D03*
X57150000Y-250825000D03*
X68580000Y-250825000D03*
X118745000Y-197485000D03*
X130175000Y-197485000D03*
X130175000Y-194945000D03*
X118745000Y-194945000D03*
X47625000Y-140970000D03*
X36195000Y-140970000D03*
X92710000Y-120650000D03*
X81280000Y-120650000D03*
X69850000Y-84455000D03*
X69850000Y-95885000D03*
X81915000Y-95885000D03*
X81915000Y-84455000D03*
X94615000Y-84455000D03*
X94615000Y-95885000D03*
X76835000Y-115570000D03*
X76835000Y-104140000D03*
X88265000Y-104140000D03*
X88265000Y-115570000D03*
X98425000Y-115570000D03*
X98425000Y-104140000D03*
X51435000Y-86995000D03*
X40005000Y-86995000D03*
X78740000Y-84455000D03*
X78740000Y-95885000D03*
X91440000Y-95885000D03*
X91440000Y-84455000D03*
X103505000Y-84455000D03*
X103505000Y-95885000D03*
X121285000Y-114300000D03*
X109855000Y-114300000D03*
X118745000Y-109855000D03*
X121285000Y-107315000D03*
X118745000Y-104775000D03*
X82550000Y-106680000D03*
X80010000Y-104140000D03*
X82550000Y-101600000D03*
X93980000Y-101600000D03*
X91440000Y-104140000D03*
X93980000Y-106680000D03*
X104140000Y-106680000D03*
X101600000Y-104140000D03*
X104140000Y-101600000D03*
X234950000Y-121920000D03*
X237490000Y-124460000D03*
X240030000Y-121920000D03*
X238760000Y-156210000D03*
X236220000Y-158750000D03*
X233680000Y-156210000D03*
D14*
X45085000Y-81280000D03*
D13*
X47625000Y-81280000D03*
D11*
X75565000Y-84455000D03*
X75565000Y-99695000D03*
X88265000Y-99695000D03*
X88265000Y-84455000D03*
X100330000Y-84455000D03*
X100330000Y-99695000D03*
D15*
X47625000Y-95250000D03*
D11*
X47625000Y-122555000D03*
X61595000Y-122555000D03*
D15*
X61595000Y-95250000D03*
D11*
X181610000Y-208280000D03*
X181610000Y-203200000D03*
D13*
X167640000Y-471170000D03*
X167640000Y-468630000D03*
D14*
X167640000Y-463550000D03*
D13*
X167640000Y-466090000D03*
X167640000Y-473710000D03*
X167640000Y-476250000D03*
X167640000Y-478790000D03*
X175260000Y-478790000D03*
X175260000Y-476250000D03*
X175260000Y-473710000D03*
X175260000Y-471170000D03*
X175260000Y-468630000D03*
X175260000Y-466090000D03*
X175260000Y-463550000D03*
D11*
X302260000Y-217170000D03*
X302260000Y-205740000D03*
X273050000Y-201295000D03*
X273050000Y-212725000D03*
X224155000Y-207010000D03*
X224155000Y-218440000D03*
X247015000Y-219075000D03*
X247015000Y-230505000D03*
X229235000Y-207010000D03*
X229235000Y-218440000D03*
X226695000Y-207010000D03*
X226695000Y-218440000D03*
X294640000Y-217170000D03*
X294640000Y-205740000D03*
X299720000Y-205740000D03*
X299720000Y-217170000D03*
X221615000Y-207010000D03*
X221615000Y-218440000D03*
X246380000Y-200660000D03*
X246380000Y-212090000D03*
X249555000Y-212090000D03*
X249555000Y-200660000D03*
X252730000Y-212090000D03*
X252730000Y-200660000D03*
X297180000Y-212725000D03*
X297180000Y-208915000D03*
X217805000Y-194310000D03*
X235585000Y-194310000D03*
X201930000Y-140970000D03*
X201930000Y-152400000D03*
X205740000Y-140970000D03*
X205740000Y-152400000D03*
X201930000Y-197485000D03*
X213360000Y-197485000D03*
X201930000Y-186055000D03*
X201930000Y-189865000D03*
X209550000Y-140970000D03*
X209550000Y-152400000D03*
X213360000Y-152400000D03*
X213360000Y-140970000D03*
X303530000Y-187325000D03*
X292100000Y-187325000D03*
X303530000Y-184785000D03*
X292100000Y-184785000D03*
X213360000Y-194310000D03*
X201930000Y-194310000D03*
X224155000Y-189230000D03*
X235585000Y-189230000D03*
X252730000Y-196850000D03*
X241300000Y-196850000D03*
X266700000Y-196850000D03*
X255270000Y-196850000D03*
X224155000Y-186690000D03*
X235585000Y-186690000D03*
X231140000Y-201930000D03*
X242570000Y-201930000D03*
X303530000Y-164465000D03*
X292100000Y-164465000D03*
X292100000Y-169545000D03*
X292100000Y-180975000D03*
X271780000Y-180975000D03*
X271780000Y-169545000D03*
X287020000Y-169545000D03*
X287020000Y-180975000D03*
X228600000Y-165735000D03*
X240030000Y-165735000D03*
X227965000Y-180975000D03*
X227965000Y-169545000D03*
X205105000Y-180975000D03*
X205105000Y-169545000D03*
X222250000Y-180975000D03*
X222250000Y-169545000D03*
X260350000Y-173990000D03*
X260350000Y-167640000D03*
X245110000Y-177165000D03*
X245110000Y-165735000D03*
X266065000Y-165735000D03*
X266065000Y-177165000D03*
X247650000Y-165735000D03*
X247650000Y-177165000D03*
X251460000Y-165735000D03*
X251460000Y-177165000D03*
X256540000Y-177165000D03*
X256540000Y-165735000D03*
X254000000Y-177165000D03*
X254000000Y-165735000D03*
D15*
X140335000Y-93980000D03*
D11*
X167640000Y-93980000D03*
X167640000Y-127635000D03*
D15*
X140335000Y-127635000D03*
D16*
X141605000Y-108585000D03*
D11*
X160655000Y-106045000D03*
X160655000Y-108585000D03*
X160655000Y-111125000D03*
X160655000Y-144145000D03*
X160655000Y-141605000D03*
X160655000Y-139065000D03*
D16*
X141605000Y-141605000D03*
D11*
X200660000Y-128270000D03*
X189230000Y-128270000D03*
X196850000Y-89535000D03*
X185420000Y-89535000D03*
X200660000Y-112395000D03*
X189230000Y-112395000D03*
D15*
X175260000Y-86995000D03*
D11*
X175260000Y-109220000D03*
X175260000Y-154940000D03*
D15*
X175260000Y-132715000D03*
D11*
X175260000Y-113665000D03*
X175260000Y-125095000D03*
X181610000Y-159385000D03*
X170180000Y-159385000D03*
X170180000Y-161925000D03*
X181610000Y-161925000D03*
X181610000Y-164465000D03*
X170180000Y-164465000D03*
X184785000Y-95250000D03*
X184785000Y-106680000D03*
X182245000Y-95250000D03*
X182245000Y-106680000D03*
X182245000Y-111760000D03*
X182245000Y-118110000D03*
X277495000Y-102235000D03*
X277495000Y-90805000D03*
X259080000Y-99060000D03*
X259080000Y-87630000D03*
X296545000Y-106680000D03*
X285115000Y-106680000D03*
X285115000Y-109855000D03*
X296545000Y-109855000D03*
D13*
X294005000Y-85725000D03*
X296545000Y-88265000D03*
X299085000Y-85725000D03*
D11*
X285115000Y-102235000D03*
X285115000Y-90805000D03*
X282575000Y-90805000D03*
X282575000Y-102235000D03*
X296545000Y-113030000D03*
X285115000Y-113030000D03*
X280035000Y-90805000D03*
X280035000Y-102235000D03*
X303530000Y-117475000D03*
X303530000Y-128905000D03*
X262255000Y-81915000D03*
X273685000Y-81915000D03*
X285750000Y-160020000D03*
X303530000Y-160020000D03*
X278765000Y-140970000D03*
X278765000Y-129540000D03*
X259080000Y-139700000D03*
X259080000Y-128270000D03*
X237490000Y-129540000D03*
X231140000Y-129540000D03*
X237490000Y-145415000D03*
X231140000Y-145415000D03*
X245110000Y-160655000D03*
X251460000Y-160655000D03*
X266065000Y-152400000D03*
X266065000Y-158750000D03*
X228600000Y-99695000D03*
X228600000Y-88265000D03*
D13*
X294005000Y-97790000D03*
X296545000Y-100330000D03*
X299085000Y-97790000D03*
X293370000Y-134620000D03*
X295910000Y-137160000D03*
X293370000Y-139700000D03*
D11*
X303530000Y-146050000D03*
X303530000Y-134620000D03*
X283845000Y-125095000D03*
X283845000Y-136525000D03*
X255270000Y-139700000D03*
X255270000Y-128270000D03*
D13*
X269240000Y-113030000D03*
X271780000Y-115570000D03*
X274320000Y-113030000D03*
D11*
X246380000Y-85090000D03*
X246380000Y-96520000D03*
X238760000Y-133985000D03*
X227330000Y-133985000D03*
X227330000Y-141605000D03*
X238760000Y-141605000D03*
X227330000Y-139065000D03*
X238760000Y-139065000D03*
X245745000Y-151130000D03*
X257175000Y-151130000D03*
X257175000Y-156210000D03*
X245745000Y-156210000D03*
X245745000Y-153670000D03*
X257175000Y-153670000D03*
D13*
X295910000Y-125095000D03*
X293370000Y-122555000D03*
X290830000Y-125095000D03*
X282575000Y-84455000D03*
X280035000Y-81915000D03*
X282575000Y-79375000D03*
X258445000Y-189230000D03*
X260985000Y-186690000D03*
X263525000Y-189230000D03*
X243840000Y-189230000D03*
X246380000Y-186690000D03*
X248920000Y-189230000D03*
M02*
